<svg xmlns="http://www.w3.org/2000/svg" xmlns:xlink="http://www.w3.org/1999/xlink" width="36" height="36" viewBox="0 0 36 36">
  <defs>
    <clipPath id="clip-path">
      <rect id="Retângulo_7" data-name="Retângulo 7" width="36" height="36" transform="translate(698 390)" fill="none" stroke="#707070" stroke-width="1"/>
    </clipPath>
  </defs>
  <g id="arrow-outline" transform="translate(-698 -390)" clip-path="url(#clip-path)">
    <g id="arrow-outline-2" data-name="arrow-outline" transform="translate(700 390)" fill="none">
      <path d="M6,10.243V32H0V0H32V6H10.243L34.122,29.879l-4.243,4.243Z" stroke="none"/>
      <path d="M 0.09999847412109375 0.09999847412109375 L 0.09999847412109375 31.90040016174316 L 5.900300979614258 31.90040016174316 L 5.900300979614258 10.00148010253906 L 29.87910079956055 33.98028182983398 L 33.98028182983398 29.87910079956055 L 10.00148010253906 5.900300979614258 L 31.90040016174316 5.900300979614258 L 31.90040016174316 0.09999847412109375 L 0.09999847412109375 0.09999847412109375 M 0 0 L 32.00040054321289 0 L 32.00040054321289 6.000299453735352 L 10.24290084838867 6.000299453735352 L 34.12170028686523 29.87910079956055 L 29.87910079956055 34.12170028686523 L 6.000299453735352 10.24290084838867 L 6.000299453735352 32.00040054321289 L 0 32.00040054321289 L 0 0 Z" stroke="none" fill="#707070"/>
    </g>
  </g>
</svg>
